<svg width="487" height="487" viewBox="0 0 487 487" fill="none" xmlns="http://www.w3.org/2000/svg">
<path d="M62.545 368.849C51.7546 360.256 42.3986 351.079 35.3849 339.118C34.7623 338.059 34.1396 337 33.4981 335.909C25.9308 322.454 20.6057 306.815 18.7965 291.467C18.6838 290.632 18.5711 289.797 18.455 288.938C13.1414 245.328 30.7536 203.881 57.1385 170.049C63.8222 161.877 70.6667 153.792 78.8333 147.058C79.6974 146.337 80.5614 145.615 81.4516 144.871C89.1477 138.553 97.2925 133.089 105.801 127.928C106.354 127.589 106.908 127.251 107.479 126.902C133.415 111.238 176.636 94.5491 207.401 101.854C211.416 103.492 213.756 105.84 215.678 109.712C217.742 115.095 217.583 119.231 215.578 124.596C212.594 129.53 208.958 130.899 203.838 132.965C196.569 136.107 191.086 139.598 185.82 145.641C185.049 146.497 185.049 146.497 184.263 147.37C173.586 160.532 169.95 179.279 167.71 195.629C168.365 195.849 169.02 196.069 169.695 196.295C190.699 205.122 206.768 226.203 215.183 246.785C219.115 257.373 221.5 268.123 222.322 279.383C222.383 280.126 222.444 280.87 222.506 281.636C223.693 306.347 215.334 330.988 199.793 350.08C199.035 351.025 198.277 351.971 197.495 352.945C165 392.114 103.19 399.215 62.545 368.849Z" fill="#DB6E27"/>
<path d="M306.584 363.09C284.077 344.212 271.538 318.823 266.58 290.06C266.447 289.293 266.313 288.525 266.175 287.734C260.359 246.505 276.213 204.863 300.688 172.278C309.323 160.937 318.241 150.784 329.383 141.861C330.43 140.943 330.43 140.943 331.499 140.007C362.642 112.947 409.672 96.775 450.825 98.0123C455.746 98.9853 458.567 101.08 462.174 104.432C464.982 108.783 464.731 113.473 464.238 118.485C463.089 122.427 461.12 124.704 457.782 127.135C455.715 128.228 453.645 129.103 451.465 129.951C438.046 135.237 429.865 145.158 423.883 157.995C420.13 167.345 417.354 177.607 416.345 187.641C416.257 188.454 416.17 189.267 416.08 190.104C416.169 192.466 416.169 192.466 418.149 193.736C418.94 194.126 419.732 194.516 420.548 194.918C443.572 207.281 458.322 229.305 466.022 253.707C466.362 254.925 466.694 256.145 467.017 257.367C467.2 258.043 467.383 258.72 467.572 259.416C469.263 266.35 469.466 273.216 469.55 280.331C469.559 280.951 469.567 281.571 469.575 282.209C469.816 306.167 462.374 329.424 446.626 347.748C445.97 348.546 445.314 349.345 444.638 350.168C410.774 390.455 347.377 396.077 306.584 363.09Z" fill="#DB6E27"/>
</svg>
