<svg width="486" height="311" viewBox="0 0 486 311" fill="none" xmlns="http://www.w3.org/2000/svg">
<path d="M435.101 21.5149C446.597 30.6713 456.566 40.4488 464.039 53.1928C464.702 54.3211 465.365 55.4493 466.049 56.6118C474.112 70.9473 479.785 87.6095 481.713 103.963C481.833 104.852 481.953 105.742 482.077 106.658C487.738 153.122 468.973 197.282 440.861 233.328C433.74 242.036 426.447 250.65 417.746 257.824C416.826 258.593 415.905 259.362 414.956 260.154C406.757 266.886 398.079 272.708 389.014 278.207C388.424 278.568 387.834 278.928 387.226 279.3C359.592 295.989 313.541 313.771 280.763 305.987C276.485 304.243 273.991 301.741 271.944 297.615C269.744 291.88 269.914 287.473 272.05 281.757C275.23 276.5 279.103 275.042 284.558 272.84C292.303 269.493 298.146 265.773 303.756 259.335C304.577 258.423 304.577 258.423 305.415 257.492C316.791 243.468 320.665 223.494 323.052 206.074C322.354 205.84 321.656 205.606 320.937 205.364C298.558 195.96 281.437 173.499 272.471 151.569C268.282 140.289 265.741 128.835 264.864 116.838C264.8 116.046 264.735 115.254 264.669 114.438C263.404 88.109 272.31 61.8545 288.868 41.5129C289.676 40.5057 290.484 39.4985 291.317 38.4607C325.94 -3.27281 391.796 -10.8388 435.101 21.5149Z" fill="#DB6E27"/>
<path d="M175.087 27.6517C199.067 47.7649 212.427 74.8155 217.71 105.461C217.852 106.279 217.994 107.098 218.141 107.94C224.338 151.868 207.446 196.235 181.369 230.954C172.168 243.037 162.667 253.854 150.796 263.362C149.68 264.34 149.68 264.34 148.541 265.337C115.359 294.168 65.2507 311.399 21.4038 310.081C16.1611 309.044 13.155 306.812 9.31207 303.24C6.32024 298.605 6.58749 293.608 7.11349 288.268C8.33769 284.067 10.4355 281.642 13.992 279.051C16.1937 277.887 18.3992 276.955 20.7223 276.052C35.0195 270.42 43.7359 259.849 50.1102 246.171C54.1086 236.21 57.0667 225.276 58.1416 214.585C58.2346 213.719 58.3275 212.853 58.4233 211.96C58.3293 209.444 58.3293 209.444 56.2194 208.091C55.376 207.675 54.5325 207.26 53.6635 206.832C29.1324 193.66 13.4165 170.194 5.21203 144.195C4.84969 142.897 4.49694 141.597 4.15244 140.294C3.95742 139.574 3.76239 138.854 3.56146 138.112C1.75895 130.724 1.5434 123.408 1.45301 115.828C1.44446 115.167 1.43592 114.507 1.42712 113.826C1.17025 88.2999 9.09924 63.5213 25.8783 43.998C26.5774 43.1469 27.2765 42.2958 27.9967 41.4189C64.0768 -1.50493 131.624 -7.49525 175.087 27.6517Z" fill="#DB6E27"/>
</svg>
