{
	"asset":{
		"generator":"Khronos glTF Blender I/O v4.0.44",
		"version":"2.0"
	},
	"extensionsUsed":[
		"KHR_materials_emissive_strength"
	],
	"scene":0,
	"scenes":[
		{
			"name":"Scene",
			"nodes":[
				12
			]
		}
	],
	"nodes":[
		{
			"mesh":0,
			"name":"polySurface6_BodyR_0"
		},
		{
			"children":[
				0
			],
			"name":"polySurface6",
			"translation":[
				-4.780309200286865,
				0,
				0.03051593340933323
			]
		},
		{
			"mesh":1,
			"name":"polySurface7_BodyR_0"
		},
		{
			"children":[
				2
			],
			"name":"polySurface7",
			"translation":[
				-4.780309200286865,
				0,
				0.03051593340933323
			]
		},
		{
			"children":[
				1,
				3
			],
			"name":"polySurface3"
		},
		{
			"mesh":2,
			"name":"polySurface8_BodyR_0"
		},
		{
			"children":[
				5
			],
			"name":"polySurface8",
			"translation":[
				-4.780309200286865,
				0,
				0.03051593340933323
			]
		},
		{
			"children":[
				4,
				6
			],
			"name":"pSphere1",
			"scale":[
				1,
				2.2805349826812744,
				1
			],
			"translation":[
				0,
				2.3812544345855713,
				0
			]
		},
		{
			"mesh":3,
			"name":"pSphere7_HeadR_0"
		},
		{
			"children":[
				8
			],
			"name":"pSphere7",
			"translation":[
				-4.780309200286865,
				0,
				0.03051593340933323
			]
		},
		{
			"children":[
				7,
				9
			],
			"name":"RootNode"
		},
		{
			"children":[
				10
			],
			"name":"EVEV01.fbx",
			"rotation":[
				0.70710688829422,
				0,
				0,
				0.7071066498756409
			],
			"scale":[
				0.009999999776482582,
				0.009999999776482582,
				0.009999999776482582
			]
		},
		{
			"children":[
				11
			],
			"name":"Sketchfab_model",
			"rotation":[
				-0.70710688829422,
				0,
				0,
				0.7071066498756409
			]
		}
	],
	"materials":[
		{
			"doubleSided":true,
			"emissiveFactor":[
				1,
				1,
				1
			],
			"name":"BodyR",
			"pbrMetallicRoughness":{
				"baseColorFactor":[
					0.800000011920929,
					0.800000011920929,
					0.800000011920929,
					1
				],
				"metallicRoughnessTexture":{
					"index":0
				}
			}
		},
		{
			"doubleSided":true,
			"emissiveFactor":[
				1,
				1,
				1
			],
			"extensions":{
				"KHR_materials_emissive_strength":{
					"emissiveStrength":10
				}
			},
			"name":"HeadR",
			"pbrMetallicRoughness":{
				"baseColorFactor":[
					0.800000011920929,
					0.800000011920929,
					0.800000011920929,
					1
				],
				"metallicRoughnessTexture":{
					"index":1
				}
			}
		}
	],
	"meshes":[
		{
			"name":"polySurface6_BodyR_0",
			"primitives":[
				{
					"attributes":{
						"POSITION":0,
						"NORMAL":1,
						"TEXCOORD_0":2
					},
					"indices":3,
					"material":0
				}
			]
		},
		{
			"name":"polySurface7_BodyR_0",
			"primitives":[
				{
					"attributes":{
						"POSITION":4,
						"NORMAL":5,
						"TEXCOORD_0":6
					},
					"indices":7,
					"material":0
				}
			]
		},
		{
			"name":"polySurface8_BodyR_0",
			"primitives":[
				{
					"attributes":{
						"POSITION":8,
						"NORMAL":9,
						"TEXCOORD_0":10
					},
					"indices":11,
					"material":0
				}
			]
		},
		{
			"name":"pSphere7_HeadR_0",
			"primitives":[
				{
					"attributes":{
						"POSITION":12,
						"NORMAL":13,
						"TEXCOORD_0":14
					},
					"indices":15,
					"material":1
				}
			]
		}
	],
	"textures":[
		{
			"sampler":0,
			"source":0
		},
		{
			"sampler":0,
			"source":1
		}
	],
	"images":[
		{
			"mimeType":"image/png",
			"name":"BodyR_metallicRoughness",
			"uri":"BodyR_metallicRoughness.png"
		},
		{
			"mimeType":"image/png",
			"name":"HeadR_metallicRoughness",
			"uri":"HeadR_metallicRoughness.png"
		}
	],
	"accessors":[
		{
			"bufferView":0,
			"componentType":5126,
			"count":2130,
			"max":[
				-0.7420521378517151,
				-0.03203706443309784,
				0.3562108278274536
			],
			"min":[
				-1.0086009502410889,
				-0.6818726062774658,
				-0.35621097683906555
			],
			"type":"VEC3"
		},
		{
			"bufferView":1,
			"componentType":5126,
			"count":2130,
			"type":"VEC3"
		},
		{
			"bufferView":2,
			"componentType":5126,
			"count":2130,
			"type":"VEC2"
		},
		{
			"bufferView":3,
			"componentType":5123,
			"count":12288,
			"type":"SCALAR"
		},
		{
			"bufferView":4,
			"componentType":5126,
			"count":2130,
			"max":[
				1.0086007118225098,
				-0.032037075608968735,
				0.356210857629776
			],
			"min":[
				0.7420521974563599,
				-0.6818726658821106,
				-0.35621094703674316
			],
			"type":"VEC3"
		},
		{
			"bufferView":5,
			"componentType":5126,
			"count":2130,
			"type":"VEC3"
		},
		{
			"bufferView":6,
			"componentType":5126,
			"count":2130,
			"type":"VEC2"
		},
		{
			"bufferView":7,
			"componentType":5123,
			"count":12288,
			"type":"SCALAR"
		},
		{
			"bufferView":8,
			"componentType":5126,
			"count":14683,
			"max":[
				0.9406640529632568,
				0.09488683938980103,
				0.9218206405639648
			],
			"min":[
				-0.9406641125679016,
				-0.9050794243812561,
				-0.9218206405639648
			],
			"type":"VEC3"
		},
		{
			"bufferView":9,
			"componentType":5126,
			"count":14683,
			"type":"VEC3"
		},
		{
			"bufferView":10,
			"componentType":5126,
			"count":14683,
			"type":"VEC2"
		},
		{
			"bufferView":11,
			"componentType":5123,
			"count":82560,
			"type":"SCALAR"
		},
		{
			"bufferView":12,
			"componentType":5126,
			"count":2915,
			"max":[
				0.9642008543014526,
				4.069477558135986,
				0.9048048853874207
			],
			"min":[
				-0.9642008543014526,
				2.5771474838256836,
				-0.9174232482910156
			],
			"type":"VEC3"
		},
		{
			"bufferView":13,
			"componentType":5126,
			"count":2915,
			"type":"VEC3"
		},
		{
			"bufferView":14,
			"componentType":5126,
			"count":2915,
			"type":"VEC2"
		},
		{
			"bufferView":15,
			"componentType":5123,
			"count":16608,
			"type":"SCALAR"
		}
	],
	"bufferViews":[
		{
			"buffer":0,
			"byteLength":25560,
			"byteOffset":0,
			"target":34962
		},
		{
			"buffer":0,
			"byteLength":25560,
			"byteOffset":25560,
			"target":34962
		},
		{
			"buffer":0,
			"byteLength":17040,
			"byteOffset":51120,
			"target":34962
		},
		{
			"buffer":0,
			"byteLength":24576,
			"byteOffset":68160,
			"target":34963
		},
		{
			"buffer":0,
			"byteLength":25560,
			"byteOffset":92736,
			"target":34962
		},
		{
			"buffer":0,
			"byteLength":25560,
			"byteOffset":118296,
			"target":34962
		},
		{
			"buffer":0,
			"byteLength":17040,
			"byteOffset":143856,
			"target":34962
		},
		{
			"buffer":0,
			"byteLength":24576,
			"byteOffset":160896,
			"target":34963
		},
		{
			"buffer":0,
			"byteLength":176196,
			"byteOffset":185472,
			"target":34962
		},
		{
			"buffer":0,
			"byteLength":176196,
			"byteOffset":361668,
			"target":34962
		},
		{
			"buffer":0,
			"byteLength":117464,
			"byteOffset":537864,
			"target":34962
		},
		{
			"buffer":0,
			"byteLength":165120,
			"byteOffset":655328,
			"target":34963
		},
		{
			"buffer":0,
			"byteLength":34980,
			"byteOffset":820448,
			"target":34962
		},
		{
			"buffer":0,
			"byteLength":34980,
			"byteOffset":855428,
			"target":34962
		},
		{
			"buffer":0,
			"byteLength":23320,
			"byteOffset":890408,
			"target":34962
		},
		{
			"buffer":0,
			"byteLength":33216,
			"byteOffset":913728,
			"target":34963
		}
	],
	"samplers":[
		{
			"magFilter":9729,
			"minFilter":9987
		}
	],
	"buffers":[
		{
			"byteLength":946944,
			"uri":"untitled1.bin"
		}
	]
}
