<svg width="198" height="198" viewBox="0 0 198 198" fill="none" xmlns="http://www.w3.org/2000/svg">
  <circle cx="99" cy="99" r="48.5" fill="#D96D26" opacity="0.8" />
  
  <!-- Circle 1 -->
  <circle opacity="0.5" cx="99" cy="99" r="48.5" stroke="#DB6E27">
    <animate attributeName="r" values="48.5; 58.5; 68.5" dur="2s" repeatCount="indefinite" />
    <animate attributeName="opacity" values="0.5; 0.3; 0" dur="2s" repeatCount="indefinite" />
  </circle>
  
  <!-- Circle 2 -->
  <circle opacity="0.5" cx="99" cy="99" r="48.5" stroke="#DB6E27">
    <animate attributeName="r" values="48.5; 63.5; 78.5" dur="4s" repeatCount="indefinite" begin="2s" />
    <animate attributeName="opacity" values="0.5; 0.3; 0" dur="4s" repeatCount="indefinite" begin="2s" />
  </circle>
  
  <!-- Circle 3 -->
  <circle opacity="0.5" cx="99" cy="99" r="48.5" stroke="#DB6E27">
    <animate attributeName="r" values="48.5; 73.5; 88.5" dur="6s" repeatCount="indefinite" begin="3s" />
    <animate attributeName="opacity" values="0.5; 0.3; 0" dur="6s" repeatCount="indefinite" begin="3s" />
  </circle>
  
  <!-- Circle 4 -->
 

  <!-- Circle 6 (extra circle that fades away after its first loop) -->
  <circle opacity="0.5" cx="99" cy="99" r="48.5" stroke="#DB6E27">
    <animate attributeName="r" values="48.5; 63.5; 78.5" dur="3s" begin="0" />
    <animate attributeName="opacity" values="0.5; 0.3; 0" dur="3s" begin="0" />
  </circle>

  <!-- Circle 7 (extra circle that fades away after its first loop) -->
  <circle opacity="0.5" cx="99" cy="99" r="48.5" stroke="#DB6E27">
    <animate attributeName="r" values="58.5; 58.5; 68.5" dur="3s" begin="0" />
    <animate attributeName="opacity" values="0.5; 0.3; 0" dur="3s" begin="0" />
  </circle>

  <!-- Circle 8 (extra circle that fades away after its first loop) -->
  <circle opacity="0.5" cx="99" cy="99" r="48.5" stroke="#DB6E27">
    <animate attributeName="r" values="73.5; 73.5; 88.5" dur="3s" begin="0" />
    <animate attributeName="opacity" values="0.5; 0.3; 0" dur="3s" begin="0" />
  </circle>

  <path
    d="M106.071 106.071C107.881 104.261 109 101.761 109 99C109 93.4772 104.523 89 99 89C93.4772 89 89 93.4772 89 99C89 101.761 90.1193 104.261 91.9289 106.071"
    stroke="white"
    stroke-width="1.5"
    stroke-linecap="round"
  />
  <path
    d="M110.786 110.785C113.802 107.769 115.667 103.602 115.667 98.9997C115.667 89.7949 108.205 82.333 99.0007 82.333C89.7959 82.333 82.334 89.7949 82.334 98.9997C82.334 103.602 84.1995 107.769 87.2155 110.785"
    stroke="white"
    stroke-width="1.5"
    stroke-linecap="round"
  />
  <circle cx="98.9994" cy="99.0003" r="3.33333" stroke="white" stroke-width="1.5" />
  <path
    d="M95.4783 107.907C97.0773 106.448 97.8767 105.718 98.8638 105.67C98.9541 105.666 99.0446 105.666 99.1349 105.67C100.122 105.718 100.921 106.448 102.52 107.907C106 111.083 107.739 112.671 107.252 114.041C107.21 114.159 107.158 114.274 107.097 114.384C106.38 115.667 103.92 115.667 98.9993 115.667C94.0791 115.667 91.6189 115.667 90.902 114.384C90.8404 114.274 90.7884 114.159 90.7466 114.041C90.2595 112.671 91.9991 111.083 95.4783 107.907Z"
    stroke="white"
    stroke-width="1.5"
  />
</svg>
